<?xml version="1.0" standalone="no"?>
<!DOCTYPE svg PUBLIC "-//W3C//DTD SVG 20010904//EN"
 "http://www.w3.org/TR/2001/REC-SVG-20010904/DTD/svg10.dtd">
<svg version="1.0" xmlns="http://www.w3.org/2000/svg"
 width="500.000000pt" height="191.000000pt" viewBox="0 0 500.000000 191.000000"
 preserveAspectRatio="xMidYMid meet">

<g transform="translate(0.000000,191.000000) scale(0.100000,-0.100000)"
fill="#000000" stroke="none">
<path d="M2501 1724 c0 -11 3 -14 6 -6 3 7 2 16 -1 19 -3 4 -6 -2 -5 -13z"/>
<path d="M2516 1602 c-2 -4 -1 -14 4 -22 7 -11 9 -9 7 8 -1 24 -3 26 -11 14z"/>
<path d="M2470 1590 c0 -5 5 -10 11 -10 5 0 7 5 4 10 -3 6 -8 10 -11 10 -2 0
-4 -4 -4 -10z"/>
<path d="M2530 1543 c0 -11 3 -23 8 -27 4 -4 8 -12 8 -17 1 -5 3 -11 4 -14 4
-8 7 -24 9 -40 1 -10 11 -15 30 -15 16 0 34 -6 41 -14 6 -8 18 -12 25 -9 9 3
-1 13 -28 27 -31 17 -49 37 -69 75 -16 31 -28 45 -28 34z"/>
<path d="M2285 1470 c-3 -6 1 -7 9 -4 18 7 21 14 7 14 -6 0 -13 -4 -16 -10z"/>
<path d="M2210 1425 c-13 -14 -22 -27 -19 -29 2 -2 14 10 27 25 29 36 24 38
-8 4z"/>
<path d="M2257 1406 c-4 -10 -1 -13 8 -9 8 3 12 9 9 14 -7 12 -11 11 -17 -5z"/>
<path d="M2170 1355 c-7 -9 -11 -17 -9 -20 3 -2 10 5 17 15 14 24 10 26 -8 5z"/>
<path d="M2091 1299 c-32 -42 -22 -43 12 -2 16 18 25 33 20 32 -4 0 -19 -14
-32 -30z"/>
<path d="M430 940 l0 -250 -35 0 -35 0 0 -50 0 -50 125 0 125 0 0 50 c0 49 -1
50 -30 50 l-30 0 -2 248 -3 247 -57 3 -58 3 0 -251z"/>
<path d="M630 890 l0 -300 55 0 55 0 2 164 3 165 80 -152 80 -152 50 0 50 0
75 150 75 150 3 -93 3 -92 54 0 55 0 0 230 0 231 -55 -3 -56 -3 -100 -215
c-55 -118 -102 -216 -103 -218 -2 -1 -52 96 -112 218 l-108 220 -53 0 -53 0 0
-300z"/>
<path d="M2045 1178 c-27 -5 -55 -10 -61 -10 -7 -1 -36 -17 -65 -37 -39 -26
-63 -52 -84 -91 -27 -50 -30 -63 -30 -150 1 -105 19 -163 69 -213 60 -60 169
-91 306 -85 l75 3 3 183 c2 157 0 182 -13 183 -8 0 -49 0 -90 0 -138 0 -125 6
-125 -56 l0 -55 55 0 55 0 0 -76 0 -77 -57 7 c-117 14 -168 77 -161 200 3 58
8 78 28 103 47 58 97 71 288 73 20 0 22 5 22 55 l0 55 -82 -1 c-46 -1 -105 -6
-133 -11z"/>
<path d="M2350 940 l0 -250 -35 0 -35 0 0 -50 0 -50 125 0 125 0 0 50 0 50
-35 0 -35 0 0 250 0 250 -55 0 -55 0 0 -250z"/>
<path d="M2544 1177 c-2 -7 -3 -109 -2 -227 l3 -215 55 0 55 0 5 120 5 120
134 -192 133 -193 54 0 54 0 1 48 c1 76 1 515 0 535 -1 14 -11 17 -56 17 l-55
0 -2 -196 -3 -196 -119 174 c-155 225 -148 218 -208 218 -30 0 -50 -5 -54 -13z"/>
<path d="M4077 1098 c-20 -51 -72 -185 -116 -298 l-79 -205 56 -3 c30 -2 58 1
61 7 4 5 31 80 60 165 30 86 56 154 59 151 2 -2 30 -75 61 -162 l56 -158 58
-3 c31 -2 57 0 57 3 0 11 -222 580 -230 588 -4 5 -24 -34 -43 -85z"/>
<path d="M4447 1183 c-4 -3 -7 -116 -7 -250 l0 -243 -30 0 c-29 0 -30 -1 -30
-50 l0 -51 123 3 122 3 3 48 3 47 -35 0 -36 0 0 250 0 250 -53 0 c-30 0 -57
-3 -60 -7z"/>
<path d="M1422 892 c-62 -158 -112 -291 -112 -296 0 -4 26 -6 58 -4 l57 3 57
160 c31 88 57 162 58 165 1 5 29 -70 96 -257 l26 -73 54 0 c37 0 54 4 54 13 0
21 -217 571 -227 574 -5 2 -60 -126 -121 -285z"/>
<path d="M3340 965 l0 -45 140 0 140 0 0 45 0 45 -140 0 -140 0 0 -45z"/>
<path d="M3141 904 c0 -11 3 -14 6 -6 3 7 2 16 -1 19 -3 4 -6 -2 -5 -13z"/>
<path d="M3186 735 c4 -8 8 -15 10 -15 2 0 4 7 4 15 0 8 -4 15 -10 15 -5 0 -7
-7 -4 -15z"/>
<path d="M3201 694 c0 -11 3 -14 6 -6 3 7 2 16 -1 19 -3 4 -6 -2 -5 -13z"/>
<path d="M3235 580 c3 -5 8 -10 11 -10 2 0 4 5 4 10 0 6 -5 10 -11 10 -5 0 -7
-4 -4 -10z"/>
<path d="M1880 557 c0 -39 -23 -88 -54 -116 -14 -14 -26 -29 -26 -34 0 -5 25
16 55 48 53 56 65 72 46 61 -5 -4 -7 3 -4 13 3 11 0 28 -6 38 -9 16 -10 15
-11 -10z"/>
<path d="M3170 556 c0 -2 7 -9 15 -16 13 -11 14 -10 9 4 -5 14 -24 23 -24 12z"/>
<path d="M3096 503 c-6 -14 -5 -15 5 -6 7 7 10 15 7 18 -3 3 -9 -2 -12 -12z"/>
<path d="M3223 503 c4 -3 1 -13 -6 -22 -11 -14 -10 -14 6 -2 20 15 22 31 5 31
-6 0 -8 -3 -5 -7z"/>
<path d="M3267 437 c-3 -7 3 -13 13 -13 10 0 16 6 13 13 -3 7 -9 13 -13 13 -4
0 -10 -6 -13 -13z"/>
<path d="M3005 374 c-52 -59 -55 -63 -25 -37 30 26 78 47 102 44 9 -1 19 2 22
8 4 5 -3 7 -16 3 -21 -5 -22 -4 -8 13 14 17 13 17 -15 -1 -26 -17 -28 -17 -22
-1 9 24 7 22 -38 -29z"/>
<path d="M3125 380 c3 -5 11 -10 16 -10 6 0 7 5 4 10 -3 6 -11 10 -16 10 -6 0
-7 -4 -4 -10z"/>
<path d="M3248 363 c7 -3 16 -2 19 1 4 3 -2 6 -13 5 -11 0 -14 -3 -6 -6z"/>
<path d="M1755 340 c-3 -6 1 -7 9 -4 18 7 21 14 7 14 -6 0 -13 -4 -16 -10z"/>
<path d="M3286 332 c-3 -6 1 -13 10 -16 23 -9 28 -2 10 13 -8 7 -17 8 -20 3z"/>
<path d="M1684 314 c-18 -14 -18 -15 4 -4 12 6 22 13 22 15 0 8 -5 6 -26 -11z"/>
<path d="M1955 310 c3 -5 8 -10 11 -10 2 0 4 5 4 10 0 6 -5 10 -11 10 -5 0 -7
-4 -4 -10z"/>
<path d="M1900 275 c13 -14 25 -25 27 -25 9 0 -33 49 -41 50 -5 0 1 -11 14
-25z"/>
<path d="M1810 286 c0 -2 7 -9 15 -16 13 -11 14 -10 9 4 -5 14 -24 23 -24 12z"/>
<path d="M2000 260 c0 -4 9 -10 20 -13 11 -3 20 -2 20 3 0 4 -9 10 -20 13 -11
3 -20 2 -20 -3z"/>
<path d="M2088 263 c7 -3 16 -2 19 1 4 3 -2 6 -13 5 -11 0 -14 -3 -6 -6z"/>
<path d="M2065 220 c3 -4 16 -10 30 -12 13 -3 22 -2 20 2 -3 4 -16 10 -30 12
-13 3 -22 2 -20 -2z"/>
<path d="M2265 170 c27 -12 43 -12 25 0 -8 5 -22 9 -30 9 -10 0 -8 -3 5 -9z"/>
</g>
</svg>
